<?xml version="1.0" encoding="UTF-8"?>
<svg width="22px" height="16px" viewBox="0 0 22 16" version="1.1" xmlns="http://www.w3.org/2000/svg" xmlns:xlink="http://www.w3.org/1999/xlink">
    <!-- Generator: sketchtool 55.2 (78181) - https://sketchapp.com -->
    <title>409EAC12-21D1-4417-BCCD-4C6EE1E6504C</title>
    <desc>Created with sketchtool.</desc>
    <g id="Delogue-app-designer-view" stroke="none" stroke-width="1" fill="none" fill-rule="evenodd">
        <g id="01c-search" transform="translate(-58.000000, -38.000000)">
            <g id="menu-/-top-generel" transform="translate(0.000000, 27.000000)">
                <g id="button-/-top_menu-copy">
                    <g transform="translate(45.000000, 0.000000)">
                        <g id="button-/-top_menu">
                            <g id="ic-/-top_button-/-burgermeu" transform="translate(10.000000, 11.000000)">
                                <path d="M19.2162132,15 L15.0453845,9.55152793 L12.5,11.6477269 L9.95813824,9.55442901 L5.0132702,15 L19.2162132,15 Z M20.4755768,15 L21,15 L21,4.64772693 L15.8178034,8.91541822 L20.4755768,15 Z M10.1371819,8.40642287 L12.5,10.3522731 L20.2134744,4 L4.78652556,4 L9.85834357,8.17679131 L9.8700732,8.16387397 L10.1371819,8.40642287 Z M4,14.6283337 L9.18530589,8.91797883 L4,4.64772693 L4,14.6283337 Z M3,3 L22,3 L22,16 L3,16 L3,3 Z" id="Combined-Shape" fill-opacity="0.87" fill="#FFFFFF" fill-rule="nonzero"></path>
                                <circle id="Oval" fill="#964F4C" cx="20" cy="5" r="5"></circle>
                                <text id="2" font-family="OpenSans-ExtraBold, Open Sans" font-size="8" font-weight="600" fill="#FFFFFF">
                                    <tspan x="17.65625" y="8">2</tspan>
                                </text>
                            </g>
                        </g>
                    </g>
                </g>
            </g>
        </g>
    </g>
</svg>