<?xml version="1.0" encoding="UTF-8"?>
<svg width="20px" height="23px" viewBox="0 0 20 23" version="1.1" xmlns="http://www.w3.org/2000/svg" xmlns:xlink="http://www.w3.org/1999/xlink">
    <!-- Generator: sketchtool 55.2 (78181) - https://sketchapp.com -->
    <title>989AB34E-8004-42FA-8B7B-8FA48D50C40E</title>
    <desc>Created with sketchtool.</desc>
    <g id="Delogue-app-designer-view" stroke="none" stroke-width="1" fill="none" fill-rule="evenodd" fill-opacity="0.87">
        <g id="01c-search" transform="translate(-12.000000, -36.000000)" fill="#FFFFFF" fill-rule="nonzero">
            <g id="menu-/-top-generel" transform="translate(0.000000, 27.000000)">
                <g id="button-/-top_menu">
                    <g>
                        <g id="ic-/-top_button-/-burgermeu">
                            <g transform="translate(6.428571, 7.714286)">
                                <path d="M18.736241,15.3078855 L25.333975,23.2251662 L24.3462619,24.0482604 L17.7226189,16.0998889 C16.509474,16.8948478 15.0587242,17.3571423 13.4999998,17.3571423 C9.23951749,17.3571423 5.78571419,13.9033391 5.78571419,9.64285684 C5.78571419,5.38237462 9.23951749,1.92857137 13.4999998,1.92857137 C17.7604821,1.92857137 21.2142854,5.38237462 21.2142854,9.64285684 C21.2142854,11.8821718 20.260149,13.8986363 18.736241,15.3078855 Z M13.4999998,16.0714281 C17.0504017,16.0714281 19.9285711,13.1932587 19.9285711,9.64285684 C19.9285711,6.09245499 17.0504017,3.21428561 13.4999998,3.21428561 C9.94959787,3.21428561 7.07142845,6.09245499 7.07142845,9.64285684 C7.07142845,13.1932587 9.94959787,16.0714281 13.4999998,16.0714281 Z" id="Combined-Shape"></path>
                            </g>
                        </g>
                    </g>
                </g>
            </g>
        </g>
    </g>
</svg>