<?xml version="1.0" encoding="UTF-8"?>
<svg width="25px" height="19px" viewBox="0 0 25 19" version="1.1" xmlns="http://www.w3.org/2000/svg" xmlns:xlink="http://www.w3.org/1999/xlink">
    <!-- Generator: sketchtool 55.2 (78181) - https://sketchapp.com -->
    <title>8F8FACBD-0425-47AA-B538-653A904B6B5A</title>
    <desc>Created with sketchtool.</desc>
    <g id="Delogue-app-designer-view" stroke="none" stroke-width="1" fill="none" fill-rule="evenodd">
        <g id="01c-search" transform="translate(-100.000000, -38.000000)" fill="#FFFFFF" fill-rule="nonzero">
            <g id="menu-/-top-generel" transform="translate(0.000000, 27.000000)">
                <g id="button-/-top_menu-copy-2">
                    <g transform="translate(90.000000, 0.000000)">
                        <g id="button-/-top_menu">
                            <g id="ic-/-top_button-/-burgermeu" transform="translate(10.000000, 11.000000)">
                                <path d="M5.87294723,8.04988196 L2.78826033,9.49644786 L0.333069868,4.09644347 L9.0887388,0.356360263 L9.30061216,0.773628982 C10.0013247,2.15362988 11.0707504,2.82006836 12.5777767,2.82006836 C14.1037779,2.82006836 15.3254769,2.13246259 16.2864446,0.718896452 L16.5243151,0.368993258 L24.6592797,4.10799783 L22.2409891,9.48944563 L18.9947228,8.03505486 L18.9947228,18.5 L5.87294723,18.5 L5.87294723,8.04988196 Z M12.5777767,3.82006836 C10.8484419,3.82006836 9.5172513,3.08014482 8.63729258,1.63661353 L1.66693013,4.61408284 L3.27979073,8.16144687 L6.87294723,6.47643383 L6.87294723,17.5 L17.9947228,17.5 L17.9947228,6.49126093 L21.7382831,8.16844911 L23.3407203,4.60252849 L16.8647464,1.6260317 C15.7532759,3.07846913 14.3126378,3.82006836 12.5777767,3.82006836 Z" id="Path-5"></path>
                            </g>
                        </g>
                    </g>
                </g>
            </g>
        </g>
    </g>
</svg>